#N canvas 0 64 2256 1314 12;
#X obj 606 189 array define grainArray;
#X obj 606 121 soundfiler;
#X floatatom 606 146 15 0 0 0 - - - 0;
#X msg 606 91 read -resize sample00.wav grainArray;
#X obj 118 413 dac~ 1 2;
#X obj 118 338 line~;
#X obj 111 173 t f f;
#X obj 113 249 pack f f f;
#X msg 113 274 \$1 \, \$2 \, \$3;
#X obj 118 368 tabread4~ grainArray;
#X msg 807 242 0 \, 168813 8000;
#X floatatom 113 133 5 0 0 0 - - - 0;
#X obj 144 213 +;
#X floatatom 206 182 5 0 0 0 - - - 0;
#X obj 206 206 * 44.1;
#X text 153 131 grain start position;
#X text 249 180 grain duration (in ms);
#X connect 1 0 2 0;
#X connect 3 0 1 0;
#X connect 5 0 9 0;
#X connect 6 0 7 0;
#X connect 6 1 12 0;
#X connect 7 0 8 0;
#X connect 8 0 5 0;
#X connect 9 0 4 0;
#X connect 9 0 4 1;
#X connect 11 0 6 0;
#X connect 12 0 7 1;
#X connect 13 0 14 0;
#X connect 13 0 7 2;
#X connect 14 0 12 1;
