#N canvas 0 64 2256 1314 12;
#X obj 69 491 outlet~;
#X obj 69 71 inlet;
#X obj 69 100 * 0.00227273;
#X obj 69 226 phasor~;
#X obj 69 331 *~;
#X obj 69 376 +~;
#X floatatom 310 123 10 0 1000 0 - - - 0;
#X obj 310 201 * 48;
#X obj 335 175 / 1000;
#X text 386 122 pos (in ms);
#X obj 335 146 r sample-rate;
#X obj 310 226 + 1;
#X floatatom 310 251 10 0 0 0 - - - 0;
#X obj 310 275 pack 0 100;
#X obj 310 300 line~;
#X floatatom 398 185 5 0 0 0 - - - 0;
#X obj 69 401 tabread4~ sampling;
#X obj 209 390 expr~ ($v1 * 0.5) - 0.25;
#X obj 209 415 cos~;
#X obj 69 466 *~;
#X obj 310 98 r g-pos;
#X obj 150 250 r sample-rate;
#X obj 82 284 expr $f1 * ($f2 / 1000);
#X obj 82 250 r g-dur;
#X floatatom 105 333 10 0 0 0 - - - 0;
#X obj 149 125 r g-speed-mult;
#X obj 149 150 + 1;
#X obj 149 175 t b f;
#X floatatom 69 200 5 0 0 0 - - - 0;
#X obj 69 175 * 1;
#X connect 1 0 2 0;
#X connect 2 0 29 0;
#X connect 3 0 4 0;
#X connect 3 0 17 0;
#X connect 4 0 5 0;
#X connect 5 0 16 0;
#X connect 6 0 7 0;
#X connect 7 0 11 0;
#X connect 8 0 7 1;
#X connect 8 0 15 0;
#X connect 10 0 8 0;
#X connect 11 0 12 0;
#X connect 12 0 13 0;
#X connect 13 0 14 0;
#X connect 14 0 5 1;
#X connect 16 0 19 0;
#X connect 17 0 18 0;
#X connect 18 0 19 1;
#X connect 19 0 0 0;
#X connect 20 0 6 0;
#X connect 21 0 22 1;
#X connect 22 0 4 1;
#X connect 22 0 24 0;
#X connect 23 0 22 0;
#X connect 25 0 26 0;
#X connect 26 0 27 0;
#X connect 27 0 29 0;
#X connect 27 1 29 1;
#X connect 28 0 3 0;
#X connect 29 0 28 0;
